{"asset":{"version":"2.0","generator":"babylon.js glTF exporter for Maya 2018 v20191010.2"},"scene":0,"scenes":[{"nodes":[0,1,4],"extensions":{}}],"nodes":[{"mesh":0,"translation":[0.5005515,1.47510648,3.06499434E-17],"rotation":[0.0,1.0,0.0,6.123234E-17],"scale":[0.248276949,0.248276949,0.248276949],"name":"EscherStar_Solution02_190920_03:Mesh"},{"children":[2,3],"translation":[0.0,0.0,0.0],"rotation":[0.0,0.0,0.0,1.0],"scale":[1.0,1.0,1.0],"name":"camera1_group"},{"translation":[0.0,0.372224867,0.9902356],"rotation":[0.0,0.0,0.0,1.0],"scale":[1.0,1.0,1.0],"name":"camera1_aim"},{"camera":0,"translation":[0.0,0.372224867,96.3199844],"rotation":[0.0,0.0,0.0,1.0],"scale":[1.0,1.0,1.0],"name":"camera1"},{"translation":[0.0,0.0,0.0],"rotation":[0.0,0.0,0.0,1.0],"scale":[1.0,1.0,1.0],"name":"Default light"}],"cameras":[{"perspective":{"yfov":0.281534433,"zfar":10000.0,"znear":0.1},"type":"perspective","name":"camera1"}],"meshes":[{"primitives":[{"attributes":{"POSITION":1,"TANGENT":2,"NORMAL":3,"TEXCOORD_0":4},"indices":0,"mode":4,"material":0},{"attributes":{"POSITION":6,"TANGENT":7,"NORMAL":8,"TEXCOORD_0":9},"indices":5,"mode":4,"material":1},{"attributes":{"POSITION":11,"TANGENT":12,"NORMAL":13,"TEXCOORD_0":14},"indices":10,"mode":4,"material":2}],"name":"EscherStar_Solution02_190920_03:Mesh"}],"accessors":[{"bufferView":0,"componentType":5123,"count":1584,"type":"SCALAR","name":"accessorIndices"},{"bufferView":1,"componentType":5126,"count":564,"max":[23.4915733,18.1096611,7.606876],"min":[-21.4503632,-25.0568,-5.67841148],"type":"VEC3","name":"accessorPositions"},{"bufferView":2,"componentType":5126,"count":564,"type":"VEC4","name":"accessorTangents"},{"bufferView":1,"byteOffset":6768,"componentType":5126,"count":564,"type":"VEC3","name":"accessorNormals"},{"bufferView":3,"componentType":5126,"count":564,"type":"VEC2","name":"accessorUVs"},{"bufferView":0,"byteOffset":3168,"componentType":5123,"count":1584,"type":"SCALAR","name":"accessorIndices"},{"bufferView":1,"byteOffset":13536,"componentType":5126,"count":560,"max":[23.4915733,18.1096611,7.606876],"min":[-21.4503632,-25.0568,-5.92626333],"type":"VEC3","name":"accessorPositions"},{"bufferView":2,"byteOffset":9024,"componentType":5126,"count":560,"type":"VEC4","name":"accessorTangents"},{"bufferView":1,"byteOffset":20256,"componentType":5126,"count":560,"type":"VEC3","name":"accessorNormals"},{"bufferView":3,"byteOffset":4512,"componentType":5126,"count":560,"type":"VEC2","name":"accessorUVs"},{"bufferView":0,"byteOffset":6336,"componentType":5123,"count":792,"type":"SCALAR","name":"accessorIndices"},{"bufferView":1,"byteOffset":26976,"componentType":5126,"count":280,"max":[23.4915733,0.712084234,7.48464537],"min":[-21.4503632,-25.0568,-5.92626333],"type":"VEC3","name":"accessorPositions"},{"bufferView":2,"byteOffset":17984,"componentType":5126,"count":280,"type":"VEC4","name":"accessorTangents"},{"bufferView":1,"byteOffset":30336,"componentType":5126,"count":280,"type":"VEC3","name":"accessorNormals"},{"bufferView":3,"byteOffset":8992,"componentType":5126,"count":280,"type":"VEC2","name":"accessorUVs"},{"bufferView":4,"componentType":5126,"count":2,"max":[3.16666675],"min":[0.0],"type":"SCALAR","name":"accessorAnimationInput"},{"bufferView":5,"componentType":5126,"count":2,"type":"VEC3","name":"accessorAnimationPositions"},{"bufferView":4,"byteOffset":8,"componentType":5126,"count":3,"max":[3.16666675],"min":[0.0],"type":"SCALAR","name":"accessorAnimationInput"},{"bufferView":6,"componentType":5126,"count":3,"type":"VEC4","name":"accessorAnimationRotations"},{"bufferView":4,"byteOffset":20,"componentType":5126,"count":2,"max":[3.16666675],"min":[0.0],"type":"SCALAR","name":"accessorAnimationInput"},{"bufferView":5,"byteOffset":24,"componentType":5126,"count":2,"type":"VEC3","name":"accessorAnimationScales"},{"bufferView":4,"byteOffset":28,"componentType":5126,"count":2,"max":[3.95833325],"min":[0.0],"type":"SCALAR","name":"accessorAnimationInput"},{"bufferView":5,"byteOffset":48,"componentType":5126,"count":2,"type":"VEC3","name":"accessorAnimationPositions"}],"bufferViews":[{"buffer":0,"byteLength":7920,"name":"bufferViewScalar"},{"buffer":0,"byteOffset":7920,"byteLength":33696,"byteStride":12,"name":"bufferViewFloatVec3"},{"buffer":0,"byteOffset":41616,"byteLength":22464,"byteStride":16,"name":"bufferViewFloatVec4"},{"buffer":0,"byteOffset":64080,"byteLength":11232,"byteStride":8,"name":"bufferViewFloatVec2"},{"buffer":0,"byteOffset":75312,"byteLength":36,"name":"bufferViewAnimationFloatScalar"},{"buffer":0,"byteOffset":75348,"byteLength":72,"name":"bufferViewAnimationFloatVec3"},{"buffer":0,"byteOffset":75420,"byteLength":48,"name":"bufferViewAnimationFloatVec4"}],"buffers":[{"uri":"EscherStar3D.bin","byteLength":75468}],"materials":[{"pbrMetallicRoughness":{"baseColorFactor":[0.0,0.166546,0.4,1.0],"metallicFactor":0.0,"roughnessFactor":0.450053632},"emissiveFactor":[1.0,1.0,1.0],"alphaMode":"OPAQUE","name":"EscherStar_Solution02_190920_03:Material_010"},{"pbrMetallicRoughness":{"baseColorFactor":[0.0496,0.34815,0.4778,1.0],"metallicFactor":0.0,"roughnessFactor":0.450053632},"emissiveFactor":[1.0,1.0,1.0],"alphaMode":"OPAQUE","name":"EscherStar_Solution02_190920_03:Material_012"},{"pbrMetallicRoughness":{"baseColorFactor":[0.5,0.033194,0.229094,1.0],"metallicFactor":0.0,"roughnessFactor":0.450053632},"emissiveFactor":[1.0,1.0,1.0],"alphaMode":"OPAQUE","name":"EscherStar_Solution02_190920_03:Material_014"}],"animations":[{"channels":[{"sampler":0,"target":{"node":0,"path":"translation"}},{"sampler":1,"target":{"node":0,"path":"rotation"}},{"sampler":2,"target":{"node":0,"path":"scale"}},{"sampler":3,"target":{"node":3,"path":"translation"}}],"samplers":[{"input":15,"interpolation":"LINEAR","output":16},{"input":17,"interpolation":"LINEAR","output":18},{"input":19,"interpolation":"LINEAR","output":20},{"input":21,"interpolation":"LINEAR","output":22}],"name":"All Animations"}]}